<svg width="16" height="16" viewBox="0 0 16 16" fill="none" xmlns="http://www.w3.org/2000/svg">
<g clip-path="url(#clip0)">
<path d="M16.0008 8.17778C16.0008 7.52001 15.9463 7.04001 15.8285 6.54224H8.16406V9.51109H12.6629C12.5722 10.2489 12.0824 11.36 10.994 12.1066L10.9787 12.206L13.4021 14.0458L13.5699 14.0622C15.1119 12.6667 16.0008 10.6133 16.0008 8.17778Z" fill="#4285F4"/>
<path d="M8.1636 16.0001C10.3676 16.0001 12.218 15.289 13.5695 14.0623L10.9935 12.1067C10.3042 12.5778 9.37899 12.9067 8.1636 12.9067C6.00489 12.9067 4.17272 11.5112 3.5196 9.58228L3.42386 9.59024L0.904047 11.5014L0.871094 11.5912C2.21348 14.2045 4.97084 16.0001 8.1636 16.0001Z" fill="#34A853"/>
<path d="M3.52009 9.58216C3.34776 9.08439 3.24802 8.55101 3.24802 7.99993C3.24802 7.44878 3.34776 6.91547 3.51102 6.4177L3.50646 6.31169L0.955058 4.36987L0.871581 4.40879C0.318318 5.49324 0.000854492 6.71104 0.000854492 7.99993C0.000854492 9.28882 0.318318 10.5066 0.871581 11.591L3.52009 9.58216Z" fill="#FBBC05"/>
<path d="M8.16364 3.09331C9.6965 3.09331 10.7305 3.7422 11.3201 4.28446L13.6239 2.08C12.209 0.791114 10.3677 0 8.16364 0C4.97087 0 2.21349 1.79554 0.871094 4.40885L3.51054 6.41777C4.17274 4.48888 6.00492 3.09331 8.16364 3.09331Z" fill="#EB4335"/>
</g>
<defs>
<clipPath id="clip0">
<rect width="16" height="16" fill="white"/>
</clipPath>
</defs>
</svg>
