<svg width="70" height="70" viewBox="0 0 70 70" fill="none" xmlns="http://www.w3.org/2000/svg">
<path d="M56.4675 33.4878C56.4675 47.4767 44.9861 58.8787 30.8998 58.8787C25.5933 58.8787 20.8657 57.3456 16.8134 54.567C9.96322 50.0637 5.42859 42.2069 5.42859 33.392C5.42859 19.403 16.9099 8.0011 30.9963 8.0011C45.0826 8.0011 56.4675 19.403 56.4675 33.4878Z" fill="#D5FF00" stroke="#A8A8A8" stroke-width="1.5" stroke-miterlimit="10" stroke-linecap="round" stroke-linejoin="round"/>
<path d="M30.9001 48.6265C39.3905 48.6265 46.2407 41.8237 46.2407 33.392C46.2407 24.9603 39.3905 18.1575 30.9001 18.1575C22.4097 18.1575 15.5594 24.9603 15.5594 33.392C15.5594 41.8237 22.5061 48.6265 30.9001 48.6265Z" fill="white" stroke="#A8A8A8" stroke-width="1.5" stroke-miterlimit="10"/>
<path d="M30.8999 33.4869L55.6958 8.86255" stroke="#A8A8A8" stroke-width="1.5" stroke-miterlimit="10"/>
<path d="M16.7173 54.5677L11.1213 64.3409" stroke="#A8A8A8" stroke-width="1.5" stroke-miterlimit="10"/>
<path d="M45.1792 54.5677L50.7751 64.3409" stroke="#A8A8A8" stroke-width="1.5" stroke-miterlimit="10"/>
<path d="M30.8997 37.6077C33.2152 37.6077 35.0483 35.7873 35.0483 33.4877C35.0483 31.1881 33.2152 29.3677 30.8997 29.3677C28.5841 29.3677 26.751 31.1881 26.751 33.4877C26.751 35.7873 28.5841 37.6077 30.8997 37.6077Z" fill="#D5FF00" stroke="#A8A8A8" stroke-width="1.5" stroke-miterlimit="10" stroke-linecap="round" stroke-linejoin="round"/>
<path d="M44.2139 16.9119L54.5374 6.85132L55.3093 8.86341L55.4058 9.15087L55.6952 9.24669L57.7213 10.0132L47.3013 19.9779L44.8893 19.4989L44.2139 16.9119Z" fill="white" stroke="#A8A8A8" stroke-width="1.5" stroke-miterlimit="10" stroke-linecap="round" stroke-linejoin="round"/>
</svg>