<svg width="70" height="70" viewBox="0 0 70 70" fill="none" xmlns="http://www.w3.org/2000/svg">
<g clip-path="url(#clip0_2015_6128)">
<path d="M16.4935 33.0726C16.4935 31.6363 15.3509 30.4722 13.9413 30.4722H3.7729C2.36329 30.4722 1.2207 31.6363 1.2207 33.0726V62.3923C1.2207 63.8285 2.36329 64.9927 3.7729 64.9927H46.6137C48.0233 64.9927 49.1659 63.8285 49.1659 62.3923V38.2703C49.1659 36.834 48.0233 35.6699 46.6137 35.6699H19.0457C17.6361 35.6699 16.4935 34.5057 16.4935 33.0694V33.0726Z" fill="white" stroke="#A8A8A8" stroke-width="1.5" stroke-miterlimit="10"/>
<path d="M23.2059 24.4832C23.2059 23.047 22.0633 21.8828 20.6537 21.8828H10.4853C9.07569 21.8828 7.93311 23.047 7.93311 24.4832V53.8029C7.93311 55.2392 9.07569 56.4034 10.4853 56.4034H53.3261C54.7357 56.4034 55.8783 55.2392 55.8783 53.8029V29.6809C55.8783 28.2447 54.7357 27.0805 53.3261 27.0805H25.7581C24.3485 27.0805 23.2059 25.9163 23.2059 24.4801V24.4832Z" fill="white" stroke="#A8A8A8" stroke-width="1.5" stroke-miterlimit="10"/>
<path d="M29.9181 15.8123C29.9181 14.3761 28.7755 13.2119 27.3659 13.2119H17.1975C15.7879 13.2119 14.6453 14.3761 14.6453 15.8123V45.132C14.6453 46.5683 15.7879 47.7325 17.1975 47.7325H60.0383C61.4479 47.7325 62.5905 46.5683 62.5905 45.132V21.01C62.5905 19.5738 61.4479 18.4096 60.0383 18.4096H32.4702C31.0606 18.4096 29.9181 17.2454 29.9181 15.8092V15.8123Z" fill="white" stroke="#A8A8A8" stroke-width="1.5" stroke-miterlimit="10"/>
<path d="M68.7482 17.7958C68.7482 24.8306 63.0513 30.4704 56.0736 30.4704C49.0365 30.4704 43.3989 24.8328 43.3989 17.7958C43.3989 10.7587 49.0365 5.12109 56.0736 5.12109C63.1107 5.12109 68.7482 10.7587 68.7482 17.7958Z" fill="#D5FF00" stroke="#A8A8A8" stroke-width="1.5" stroke-miterlimit="10"/>
<path d="M50.321 17.6099L54.5271 21.833L62.9392 13.3867" stroke="#A8A8A8" stroke-width="1.5" stroke-linecap="round"/>
</g>
<defs>
<clipPath id="clip0_2015_6128">
<rect width="70" height="70" fill="white" transform="translate(-0.279297 -0.128906)"/>
</clipPath>
</defs>
</svg>
