<svg width="70" height="70" viewBox="0 0 70 70" fill="none" xmlns="http://www.w3.org/2000/svg">
<g clip-path="url(#clip0_1886_7290)">
<path d="M29.5001 29.4367C29 27.9366 27.5 27.9366 27.0001 29.4367C26.5258 30.8597 28.1571 32.9741 30 32.9365C31.3321 32.9094 33.5 31.5466 33.5 28.9367" stroke="#A8A8A8"/>
<path d="M34.9999 29.4367C35.5 27.9366 37 27.9366 37.4999 29.4367C37.9742 30.8597 36.3429 32.9741 34.5 32.9365C33.1679 32.9094 31 31.5466 31 28.9367" stroke="#A8A8A8"/>
<ellipse cx="31.9613" cy="62.3533" rx="4.90758" ry="4.41682" fill="#A8A8A8"/>
<path d="M53.1 29.1492L61.2373 29.1707" stroke="#A8A8A8" stroke-width="1.5" stroke-miterlimit="10" stroke-linecap="round"/>
<path d="M2.00006 29.1821L10.7947 29.2053" stroke="#A8A8A8" stroke-width="1.5" stroke-miterlimit="10" stroke-linecap="round"/>
<path d="M47.2906 16.7096L53.3418 10.6584" stroke="#A8A8A8" stroke-width="1.5" stroke-miterlimit="10" stroke-linecap="round"/>
<path d="M10.7961 10.6584L16.3147 16.177" stroke="#A8A8A8" stroke-width="1.5" stroke-miterlimit="10" stroke-linecap="round"/>
<path d="M32.801 9.98001L32.8063 1.70113" stroke="#A8A8A8" stroke-width="1.5" stroke-miterlimit="10" stroke-linecap="round"/>
<path d="M48.0797 31.0721C48.0797 22.1626 40.8496 14.9041 31.9116 14.9041C23.0021 14.9041 15.8005 22.0487 15.7435 30.9867C15.7151 35.228 17.3376 39.0992 19.9848 42.0026C22.8313 45.1053 24.3684 49.1473 24.3684 53.3601C24.3684 55.1534 25.8201 56.6051 27.6134 56.6051H36.1813C37.9746 56.6051 39.4263 55.1534 39.4263 53.3601C39.4263 49.1189 41.0488 45.0768 43.8953 41.9172C46.4856 39.0423 48.0797 35.2565 48.0797 31.0721Z" fill="#D5FF00" stroke="#A8A8A8" stroke-width="1.5" stroke-miterlimit="10"/>
<path d="M32.9081 48.7202H31.1432C30.4601 48.7202 29.9192 49.2326 29.8623 49.8873L28.6099 61.1024H35.2422L34.2174 49.9157C34.1605 49.2326 33.5912 48.7202 32.9081 48.7202Z" fill="white" stroke="#A8A8A8" stroke-width="1.5" stroke-miterlimit="10"/>
<path d="M37.0634 63.436H26.7876C26.4744 63.436 26.2183 63.1799 26.2183 62.8667V57.1743C26.2183 56.8612 26.4744 56.605 26.7876 56.605H37.0634C37.3765 56.605 37.6327 56.8612 37.6327 57.1743V62.8667C37.6327 63.1799 37.3765 63.436 37.0634 63.436Z" fill="white" stroke="#A8A8A8" stroke-width="1.5" stroke-miterlimit="10"/>
<path d="M26.1897 58.9363H37.6326" stroke="#A8A8A8" stroke-width="1.5" stroke-miterlimit="10"/>
<path d="M26 60.9363H37.4429" stroke="#A8A8A8" stroke-width="1.5" stroke-miterlimit="10"/>
<path d="M29.7631 48.5759C29.8401 48.9829 30.2324 49.2505 30.6394 49.1735C31.0464 49.0965 31.3139 48.7041 31.2369 48.2971L29.7631 48.5759ZM31.2369 48.2971L27.7369 29.7971L26.2631 30.0759L29.7631 48.5759L31.2369 48.2971Z" fill="#A8A8A8"/>
<path d="M33.5 48.9363L37 29.9363" stroke="#A8A8A8" stroke-width="1.5" stroke-miterlimit="10" stroke-linejoin="round"/>
<path d="M30 27.9365C30 26.832 29.1046 25.9365 28 25.9365C26.8954 25.9365 26 26.832 26 27.9365" stroke="#A8A8A8" stroke-width="1.5"/>
<path d="M38 27.9365C38 26.832 37.1046 25.9365 36 25.9365C34.8954 25.9365 34 26.832 34 27.9365" stroke="#A8A8A8" stroke-width="1.5"/>
<path d="M26 27.9365C26 29.0411 27.3431 30.9365 29 30.9365C33 30.9365 34 29.0411 34 27.9365" stroke="#A8A8A8" stroke-width="1.5"/>
<path d="M34 27.9365C34 26.832 33.1046 25.9365 32 25.9365C30.8954 25.9365 30 26.832 30 27.9365" stroke="#A8A8A8" stroke-width="1.5"/>
<path d="M30 27.9365C30 29.0411 31.5 30.9365 35 30.9365C36.6569 30.9365 38 29.0411 38 27.9365" stroke="#A8A8A8" stroke-width="1.5"/>
</g>
<defs>
<clipPath id="clip0_1886_7290">
<rect width="70" height="70" fill="white"/>
</clipPath>
</defs>
</svg>