<svg width="68" height="69" viewBox="0 0 68 69" fill="none" xmlns="http://www.w3.org/2000/svg">
<path d="M6.78955 15.088C6.78955 13.0533 8.43903 11.4038 10.4738 11.4038H51.7369C53.7716 11.4038 55.4211 13.0533 55.4211 15.088V48.4566H6.78955V15.088Z" fill="white" stroke="#A8A8A8" stroke-width="1.5"/>
<path d="M1 46.1406H63.5263V49.2635C63.5263 52.6547 60.7772 55.4038 57.3859 55.4038H7.14036C3.74913 55.4038 1 52.6547 1 49.2635V46.1406Z" fill="white" stroke="#A8A8A8" stroke-width="1.5"/>
<rect x="1" y="30.4019" width="21.3335" height="36.9782" rx="3.68422" fill="white" stroke="#A8A8A8" stroke-width="1.5"/>
<path d="M5.26685 40.3579H18.0669" stroke="#A8A8A8" stroke-width="1.5" stroke-linecap="round" stroke-linejoin="round"/>
<path d="M5.2666 48.1431H18.0667" stroke="#A8A8A8" stroke-width="1.5" stroke-linecap="round" stroke-linejoin="round"/>
<path d="M55.421 24.1409C61.8159 24.1409 66.9999 18.9568 66.9999 12.5619C66.9999 6.167 61.8159 0.98291 55.421 0.98291C49.0261 0.98291 43.842 6.167 43.842 12.5619C43.842 18.9568 49.0261 24.1409 55.421 24.1409Z" fill="#D5FF00" stroke="#A8A8A8" stroke-width="1.5" stroke-miterlimit="10"/>
<path d="M53.5126 18.7968L49.1864 14.3433C48.8047 13.9616 48.8047 13.1982 49.1864 12.6892C49.5682 12.3075 50.3316 12.3075 50.8406 12.6892L53.6399 15.4885L60.1292 8.99918C60.5109 8.61746 61.2744 8.61746 61.7833 8.99918C62.2923 9.38091 62.165 10.1444 61.7833 10.6533L53.5126 18.7968Z" fill="#A8A8A8"/>
</svg>
