<svg width="192" height="108" viewBox="0 0 192 108" fill="none" xmlns="http://www.w3.org/2000/svg">
<g clip-path="url(#clip0_791764_8718)">
<path d="M90.7848 36.0602C89.3094 36.0602 88.1133 37.2563 88.1133 38.7318C88.1133 40.2072 89.3094 41.4033 90.7848 41.4033C92.2603 41.4033 93.4564 40.2072 93.4564 38.7318V38.7269C93.4592 37.2568 92.2697 36.063 90.7996 36.0602H90.7848Z" fill="#545454"/>
<path d="M114.882 61.46C114.882 69.3666 110.256 71.9892 104.81 71.9892C102.527 72.0275 100.268 71.5224 98.2196 70.5159L99.2754 66.8622C100.954 67.8075 102.849 68.3016 104.776 68.2961C107.943 68.2961 110.634 66.2629 110.634 62.6043V61.3373C109.161 62.9528 107.059 63.8489 104.874 63.7927C99.9139 63.7927 96.1618 59.8001 96.1618 54.0592C96.1618 48.559 99.6929 44.3306 104.893 44.3306C107.069 44.258 109.165 45.158 110.61 46.7861L110.664 44.8463H114.882V61.46ZM110.87 54.0937C110.87 50.2533 108.449 48.2005 105.694 48.2005C102.404 48.2005 100.503 50.8769 100.503 54.0937C100.503 57.4871 102.551 59.9867 105.694 59.9867C108.587 59.9867 110.87 57.8358 110.87 54.0937ZM60.3511 54.0937C60.3511 57.6294 62.5169 59.9867 65.5322 59.9867C68.2774 59.9867 70.7329 57.9732 70.7329 54.0937C70.7329 50.3073 68.3805 48.2005 65.5469 48.2005C62.3843 48.2005 60.3511 50.6805 60.3511 54.0937ZM70.5217 44.8561H74.7304V63.282H70.5217L70.453 61.352C68.9427 62.8818 66.8957 63.7627 64.7464 63.8074C59.7226 63.8025 56 59.7608 56 54.0937C56 48.0531 60.0319 44.3405 64.7464 44.3405C66.9177 44.2776 69.0059 45.1762 70.453 46.7959L70.5217 44.8561ZM92.9206 63.282H88.6579V44.8561H92.9206V63.282ZM83.8206 63.282H79.5726V36.4977H83.8304L83.8206 63.282ZM119.725 44.8561H123.825L123.889 46.5651C125.042 45.1494 126.773 44.3316 128.599 44.3405C133.102 44.3405 135.557 47.125 135.557 51.977V63.2722H131.305V52.1292C131.305 49.6345 129.777 48.2005 127.636 48.2005C125.495 48.2005 123.978 49.6345 123.978 52.1292V63.282H119.725V44.8561Z" fill="#545454"/>
</g>
<defs>
<clipPath id="clip0_791764_8718">
<rect width="79.583" height="36" fill="white" transform="translate(56 36)"/>
</clipPath>
</defs>
</svg>
