<svg width="192" height="108" viewBox="0 0 192 108" fill="none" xmlns="http://www.w3.org/2000/svg">
<g clip-path="url(#clip0_791764_8717)">
<path d="M29.2727 53.2041C29.2199 53.1349 29.1502 53.0805 29.0703 53.0462C28.9904 53.0119 28.903 52.9989 28.8165 53.0084C28.7301 53.0178 28.6476 53.0495 28.5769 53.1003C28.5063 53.151 28.45 53.2192 28.4134 53.2982L24.0553 62.0242C24.0155 62.1036 23.9966 62.1919 24.0005 62.2807C24.0043 62.3695 24.0308 62.4558 24.0773 62.5315C24.1239 62.6072 24.1889 62.6697 24.2664 62.7131C24.3438 62.7565 24.4311 62.7794 24.5199 62.7796H30.5884C30.6867 62.7815 30.7833 62.7544 30.8663 62.7019C30.9494 62.6493 31.0152 62.5735 31.0556 62.4839C32.3633 59.7956 31.5712 55.6638 29.2727 53.2041Z" fill="#545454"/>
<path d="M32.4706 45.2792C31.3842 46.9524 30.751 48.8797 30.6333 50.8719C30.5156 52.864 30.9174 54.8526 31.7993 56.6423L34.7396 62.4839C34.7825 62.5707 34.8486 62.6438 34.9307 62.6951C35.0127 62.7463 35.1074 62.7737 35.2041 62.7742H41.2727C41.3577 62.7672 41.4399 62.7399 41.5124 62.6948C41.5848 62.6496 41.6455 62.5878 41.6893 62.5145C41.7332 62.4412 41.7589 62.3585 41.7644 62.2732C41.77 62.1879 41.7551 62.1025 41.7211 62.0242L33.3567 45.2792C33.3166 45.1956 33.2538 45.125 33.1754 45.0756C33.097 45.0262 33.0063 45 32.9136 45C32.821 45 32.7303 45.0262 32.6519 45.0756C32.5735 45.125 32.5106 45.1956 32.4706 45.2792Z" fill="#545454"/>
<path d="M160.678 54.5806L165.084 62.7797H168.999V48.145H165.885V57.5888L164.706 54.8495L161.167 48.145H156.25V62.7797H159.365V51.6182L160.678 54.5806Z" fill="#545454"/>
<path d="M136.44 48.145H133.035V62.7797H136.44V48.145Z" fill="#545454"/>
<path d="M129.106 58.4517C129.106 55.8898 127.75 54.6881 123.921 53.8628C121.808 53.3951 121.298 52.9273 121.298 52.2499C121.298 51.4031 122.052 51.0456 123.446 51.0456C125.137 51.0456 126.808 51.559 128.387 52.2714V48.9246C126.87 48.2334 125.219 47.8908 123.553 47.9219C119.77 47.9219 117.812 49.5697 117.812 52.266C117.812 54.4166 118.814 56.1398 122.729 56.8979C125.065 57.3871 125.556 57.7662 125.556 58.5457C125.556 59.3253 125.065 59.7931 123.408 59.7931C121.42 59.7567 119.471 59.2295 117.734 58.2581V61.777C118.913 62.355 120.471 63.0001 123.373 63.0001C127.466 63.0001 129.09 61.1748 129.09 58.457" fill="#545454"/>
<path d="M114.933 58.4517C114.933 55.8898 113.591 54.6881 109.751 53.8628C107.637 53.3951 107.125 52.9273 107.125 52.2499C107.125 51.4031 107.882 51.0456 109.273 51.0456C110.964 51.0456 112.632 51.559 114.211 52.2714V48.9246C112.695 48.2334 111.043 47.8908 109.377 47.9219C105.597 47.9219 103.636 49.5697 103.636 52.266C103.636 54.4166 104.638 56.1398 108.556 56.8979C110.892 57.3871 111.381 57.7662 111.381 58.5457C111.381 59.3253 110.892 59.7931 109.232 59.7931C107.244 59.7567 105.295 59.2295 103.559 58.2581V61.777C104.74 62.355 106.298 63.0001 109.198 63.0001C113.292 63.0001 114.914 61.1748 114.914 58.457" fill="#545454"/>
<path d="M80.6334 59.6157V48.145H77.207V62.7797H84.2047L85.3056 59.6157H80.6334Z" fill="#545454"/>
<path d="M70.5926 62.7797V51.3064H74.6419V48.145H63.3828V51.3064H67.1663V62.7797H70.5926Z" fill="#545454"/>
<path d="M58.4158 48.145H53.9261L48.8242 62.7797H52.7312L53.4562 60.3146C55.2356 60.8381 57.1278 60.8381 58.9072 60.3146L59.6295 62.7797H63.523L58.4158 48.145ZM56.1709 57.6775C55.5348 57.6784 54.9018 57.5879 54.2913 57.4087L56.1709 51.0214L58.0506 57.4087C57.4401 57.5877 56.8071 57.6782 56.1709 57.6775Z" fill="#545454"/>
<path d="M96.2712 48.145H91.7816L86.6797 62.7797H90.5732L91.2982 60.3146C93.0776 60.8381 94.9698 60.8381 96.7492 60.3146L97.4715 62.7797H101.365L96.2712 48.145ZM94.0264 57.6775C93.3902 57.6786 92.7572 57.5881 92.1468 57.4087L94.0264 51.0214L95.9061 57.4087C95.2956 57.5881 94.6626 57.6787 94.0264 57.6775Z" fill="#545454"/>
<path d="M148.705 48.145H144.215L139.113 62.7797H143.007L143.729 60.3146C145.509 60.8381 147.401 60.8381 149.18 60.3146L149.902 62.7797H153.799L148.705 48.145ZM146.46 57.6775C145.824 57.6782 145.191 57.5877 144.58 57.4087L146.46 51.0214L148.34 57.4087C147.729 57.5877 147.096 57.6782 146.46 57.6775Z" fill="#545454"/>
</g>
<defs>
<clipPath id="clip0_791764_8717">
<rect width="145" height="18" fill="white" transform="translate(24 45)"/>
</clipPath>
</defs>
</svg>