<svg width="192" height="108" viewBox="0 0 192 108" fill="none" xmlns="http://www.w3.org/2000/svg">
<path d="M11.7209 52.7813C11.7209 53.9455 11.7039 54.9451 11.7379 55.9411C11.7439 56.1093 11.9344 56.3316 12.1007 56.4241C16.7755 59.0456 21.4601 61.648 26.1326 64.2743C26.5184 64.4906 26.7695 64.3416 27.0717 64.1722C31.9443 61.4509 36.8194 58.7333 41.6932 56.0144C42.5692 55.5254 42.9927 55.7729 42.9927 56.7773C42.9927 58.499 42.9842 60.2219 43 61.9435C43.0024 62.2823 42.9065 62.4782 42.5935 62.6524C37.3787 65.5467 32.17 68.4518 26.9661 71.3653C26.6434 71.5455 26.3995 71.5443 26.0767 71.3653C20.8729 68.4518 15.6629 65.5491 10.4542 62.6428C10.1072 62.4493 9.84875 61.6672 10.1011 61.4161C10.3935 61.1278 10.7199 60.9523 11.2137 61.2311C16.0403 63.9524 20.8899 66.6328 25.7164 69.3541C26.2866 69.676 26.6992 69.7109 27.2949 69.3733C31.7465 66.849 36.22 64.3633 40.6995 61.8883C41.1654 61.6312 41.3681 61.3512 41.3377 60.8118C41.2892 59.9443 41.3244 59.0721 41.3244 58.0785C41.0041 58.2395 40.8099 58.3284 40.6243 58.4317C36.1715 60.9139 31.7138 63.3865 27.2779 65.8975C26.7077 66.2195 26.3061 66.1991 25.7479 65.8843C20.6945 63.0332 15.6241 60.2098 10.55 57.3949C10.1861 57.193 10.038 56.9864 10.0441 56.5659C10.0696 54.8045 10.0526 53.042 10.0562 51.2795C10.0574 50.5466 10.5513 50.2703 11.2101 50.6379C16.1216 53.3724 21.0354 56.1033 25.9372 58.8546C26.3594 59.0925 26.6664 59.0997 27.0935 58.8606C31.6434 56.3051 36.203 53.7677 40.7699 51.2422C41.1715 51.02 41.3559 50.7761 41.3365 50.3051C41.2989 49.4076 41.3256 48.5077 41.3256 47.4841C41.0295 47.6271 40.8196 47.716 40.6219 47.8265C36.0987 50.3484 31.5755 52.8678 27.0595 55.4029C26.6907 55.6095 26.4153 55.6479 26.0209 55.4269C20.8753 52.5338 15.7175 49.6599 10.5597 46.7885C10.2443 46.6131 10.0235 46.4557 10.0344 46.0256C10.0441 45.6327 10.2249 45.4693 10.5246 45.3023C15.6823 42.4296 20.8389 39.5558 25.9845 36.6615C26.3922 36.432 26.6798 36.456 27.0717 36.6771C30.8281 38.7928 34.593 40.8954 38.3651 42.9835C38.8153 43.2322 39.1695 43.4857 38.9499 44.0324C38.7849 44.4432 37.9623 44.5826 37.4964 44.3231C33.9936 42.3707 30.4895 40.422 26.9928 38.4612C26.6846 38.2882 26.4444 38.233 26.1071 38.4216C21.7149 40.887 17.313 43.3367 12.9148 45.7913C12.8104 45.8489 12.7146 45.9198 12.5532 46.0256C12.734 46.1493 12.865 46.2574 13.0118 46.3391C17.3227 48.7444 21.6372 51.1413 25.9409 53.561C26.3631 53.7977 26.6725 53.8013 27.0971 53.5622C31.9273 50.847 36.7684 48.1533 41.6083 45.4537C42.4625 44.9767 42.989 45.2722 42.9903 46.2238C42.9903 47.9262 42.9818 49.6275 42.9975 51.3299C43 51.6651 42.909 51.8634 42.5984 52.0364C37.3666 54.9415 32.1409 57.8562 26.9236 60.7865C26.5754 60.9824 26.3425 60.9019 26.0428 60.7349C21.5402 58.219 17.0327 55.7104 12.5265 53.2018C12.3057 53.0781 12.0776 52.9675 11.7197 52.7825L11.7209 52.7813Z" fill="#545454"/>
<path d="M115.289 62.1593C115.289 62.4039 115.289 62.6486 115.289 62.8946C115.289 63.1406 115.289 63.4005 115.289 63.7105H112.238V43.6421H115.29V51.4968C115.545 51.3842 115.741 51.3606 115.833 51.2494C118.496 48.065 124.738 48.7127 126.594 54.0182C127.725 57.2471 126.717 60.8485 124.159 62.7834C121.64 64.6876 118.222 64.5111 115.91 62.3608C115.786 62.2469 115.637 62.1607 115.5 62.062L115.288 62.1593H115.289ZM123.901 56.7731C123.912 54.192 122.003 52.1793 119.537 52.171C117.093 52.1626 115.164 54.1433 115.15 56.6758C115.137 59.2626 117.04 61.2725 119.509 61.2794C121.945 61.2864 123.89 59.2904 123.901 56.7731Z" fill="#545454"/>
<path d="M63.9481 51.3429V43.623H67.0626V63.7206H64.0631C64.0243 63.1341 63.9869 62.5656 63.9412 61.8664C63.6683 62.0471 63.5366 62.0985 63.4535 62.1931C61.0747 64.9035 56.4224 64.6714 53.9771 61.7232C50.925 58.0454 52.0347 52.0713 56.18 50.0197C58.6419 48.8007 61.4183 49.2246 63.4064 51.1206C63.5034 51.2137 63.6184 51.2873 63.7251 51.3707L63.9495 51.3416L63.9481 51.3429ZM55.393 56.6346C55.3376 59.1601 57.2135 61.2062 59.6463 61.2743C62.1041 61.3424 64.095 59.3742 64.1601 56.8111C64.2238 54.2813 62.2994 52.2242 59.8223 52.1728C57.3964 52.1213 55.4498 54.0826 55.393 56.6346Z" fill="#545454"/>
<path d="M106.702 51.5009C106.738 50.7948 106.763 50.2986 106.79 49.7565H109.793V63.7132H106.794C106.764 63.1377 106.733 62.5776 106.697 61.909C106.461 62.0313 106.293 62.0661 106.206 62.1703C103.634 65.2241 98.0634 64.6834 95.8661 60.3786C94.0207 56.7619 95.2066 52.1848 98.5192 50.2388C101.005 48.7793 104.054 49.1157 106.127 51.0769C106.25 51.1937 106.4 51.2813 106.702 51.5037V51.5009ZM106.889 56.7175C106.884 54.1682 104.986 52.182 102.545 52.1722C100.079 52.1625 98.123 54.1808 98.1285 56.73C98.1341 59.2528 100.063 61.2654 102.487 61.2779C104.957 61.2905 106.891 59.2861 106.887 56.7175H106.889Z" fill="#545454"/>
<path d="M80.5761 49.7495H83.57V63.7312H80.5428V61.8701C80.2505 62.0355 80.0745 62.0841 79.9748 62.1995C77.3134 65.2894 71.6234 64.6403 69.523 60.1076C67.7594 56.3018 69.2529 51.6705 72.8135 49.9761C75.2449 48.8182 77.9617 49.2436 79.9221 51.0839C80.0454 51.1993 80.1951 51.284 80.4832 51.4925C80.5193 50.8198 80.547 50.3097 80.5761 49.7495ZM80.6814 56.7063C80.6744 54.1641 78.7805 52.1917 76.3255 52.1708C73.8692 52.15 71.9226 54.1752 71.9309 56.7411C71.9392 59.275 73.8539 61.2682 76.2909 61.2779C78.7584 61.2877 80.6883 59.2778 80.68 56.7049L80.6814 56.7063Z" fill="#545454"/>
<path d="M158.262 43.6211H161.308C161.308 43.9033 161.308 44.1521 161.308 44.3995C161.308 47.6409 161.306 50.8823 161.315 54.1223C161.315 54.36 161.412 54.5963 161.465 54.834C161.685 54.7019 161.943 54.6074 162.12 54.4309C163.546 53.0131 164.942 51.5648 166.387 50.1679C166.648 49.9163 167.088 49.7509 167.457 49.7286C168.432 49.6689 169.413 49.7078 170.548 49.7078C170.264 50.015 170.104 50.1998 169.933 50.3736C168.32 51.9971 166.718 53.6317 165.084 55.2329C164.672 55.636 164.617 55.8918 165.013 56.363C166.89 58.5897 168.726 60.8512 170.575 63.1001C170.718 63.2739 170.85 63.456 171.077 63.752C169.79 63.752 168.626 63.7701 167.465 63.7326C167.291 63.727 167.095 63.4893 166.958 63.3184C165.531 61.5587 164.121 59.7865 162.688 58.0323C162.519 57.8266 162.073 57.5458 162.045 57.575C161.765 57.8711 161.358 58.2158 161.342 58.5647C161.267 60.0895 161.31 61.6184 161.307 63.1474C161.307 63.3267 161.285 63.5074 161.269 63.7256H158.262V43.6211Z" fill="#545454"/>
<path d="M156.624 51.619C155.998 52.2167 155.37 52.8158 154.757 53.4009C151.556 51.7316 149.269 51.8762 147.692 53.8193C146.362 55.4581 146.354 57.9684 147.672 59.6058C149.243 61.5587 151.558 61.7088 154.802 60.0353C155.354 60.6205 155.918 61.2195 156.482 61.8172C153.085 64.9947 148.154 64.6764 145.509 61.9437C142.749 59.0929 142.872 53.9736 145.771 51.2826C148.677 48.5819 154.013 48.7237 156.624 51.6204V51.619Z" fill="#545454"/>
<path d="M181.027 52.4311C180.233 52.862 179.452 53.2873 178.627 53.7349C178.45 53.4847 178.302 53.2595 178.138 53.0468C177.497 52.217 176.679 51.7903 175.608 51.9557C174.867 52.0711 174.338 52.5159 174.249 53.1441C174.151 53.8322 174.493 54.3284 175.076 54.6036C175.74 54.9163 176.449 55.1304 177.132 55.4028C177.838 55.685 178.573 55.9171 179.227 56.2896C181.593 57.6407 181.972 60.6792 180.046 62.6043C177.344 65.3064 172.118 64.218 170.82 60.6069C171.617 60.1885 172.426 59.7646 173.239 59.3378C173.479 59.6909 173.676 60.0314 173.921 60.3317C174.726 61.3213 176.035 61.6994 177.16 61.2852C177.745 61.0697 178.138 60.6931 178.214 60.0398C178.293 59.3559 178.015 58.8347 177.409 58.5706C176.629 58.2314 175.809 57.9896 175.015 57.6852C174.416 57.4544 173.792 57.2515 173.241 56.929C170.708 55.4473 170.586 51.9779 172.984 50.2683C175.517 48.4641 179.436 49.3745 180.922 52.1142C180.963 52.192 180.98 52.2823 181.03 52.4283L181.027 52.4311Z" fill="#545454"/>
<path d="M94.5139 61.1846V63.788C93.0869 63.9631 91.6724 64.1355 90.2787 63.7018C88.7256 63.2195 87.7932 61.8114 87.7419 59.7918C87.6851 57.5484 87.6948 55.3022 87.7225 53.0574C87.7295 52.4264 87.5618 52.1678 86.9079 52.2345C86.3897 52.286 85.8619 52.2457 85.3008 52.2457V49.7104C85.8951 49.7104 86.4839 49.6923 87.07 49.7159C87.548 49.7354 87.7253 49.5449 87.717 49.064C87.6948 47.8631 87.7101 46.6608 87.7101 45.4028H90.7816C90.7816 46.5482 90.8273 47.6991 90.7649 48.8416C90.7248 49.5755 90.9949 49.7687 91.6738 49.7215C92.4289 49.67 93.1895 49.7104 94.0069 49.7104V52.2443C93.1687 52.2443 92.3249 52.2721 91.484 52.2345C90.9437 52.2095 90.7594 52.3763 90.7691 52.9379C90.8024 54.7893 90.7816 56.6407 90.7857 58.4922C90.7857 58.7229 90.794 58.9564 90.8231 59.1844C91.0268 60.7634 91.556 61.2151 93.1424 61.1846C93.576 61.1762 94.011 61.1846 94.5167 61.1846H94.5139Z" fill="#545454"/>
<path d="M131.829 63.7328H128.781V49.7469H131.84V51.779C132.658 51.0813 133.277 50.4377 134.006 49.9637C134.769 49.4661 135.668 49.3146 136.634 49.4758V52.5227C135.981 52.5991 135.352 52.6005 134.765 52.7562C133.177 53.1732 132.052 54.5743 131.941 56.4757C131.818 58.5746 131.86 60.6846 131.831 62.789C131.826 63.0851 131.831 63.3825 131.831 63.7314L131.829 63.7328Z" fill="#545454"/>
<path d="M141.713 63.7278H138.668V49.7642H141.713V63.7278Z" fill="#545454"/>
<path d="M138.268 45.4089C138.307 44.3484 139.144 43.5714 140.215 43.6019C141.261 43.6325 142.064 44.486 142.04 45.5423C142.015 46.6098 141.118 47.4397 140.046 47.391C139.004 47.3424 138.228 46.4792 138.267 45.4089H138.268Z" fill="#545454"/>
</svg>
