<svg width="192" height="108" viewBox="0 0 192 108" fill="none" xmlns="http://www.w3.org/2000/svg">
<g clip-path="url(#clip0_791766_955)">
<path fill-rule="evenodd" clip-rule="evenodd" d="M163.914 50.227V48.5076H166.915V64.1494H163.844V62.3583C162.757 63.6479 161.197 64.5076 158.976 64.5076C154.582 64.5076 151.746 60.9733 151.746 56.3404C151.746 51.7315 154.582 48.1733 158.976 48.1733C160.89 48.1494 162.709 48.8897 163.914 50.227ZM163.702 53.2837C162.78 51.9225 161.245 51.0867 159.449 51.0867C156.732 51.0867 154.842 53.427 154.842 56.3404C154.842 59.2539 156.637 61.6419 159.449 61.6419C161.315 61.6419 162.828 60.5673 163.702 59.1822V53.2837ZM145.532 44.4718C145.532 43.2777 146.501 42.2986 147.706 42.2986C148.864 42.2986 149.856 43.3016 149.856 44.4718C149.856 45.6897 148.887 46.6688 147.706 46.6688C146.501 46.6688 145.532 45.6897 145.532 44.4718ZM146.099 64.1255H149.289V48.5076H146.099V64.1255ZM139.838 42.7046H142.957V64.1255H139.885V62.3583C138.799 63.6479 137.239 64.5076 135.018 64.5076C130.624 64.5076 127.788 60.9733 127.788 56.3404C127.788 51.7315 130.624 48.1733 135.018 48.1733C136.908 48.1733 138.657 48.8658 139.838 50.0837V42.7046ZM139.767 53.2837C138.846 51.9225 137.31 51.0867 135.514 51.0867C132.797 51.0867 130.907 53.427 130.907 56.3404C130.907 59.2539 132.703 61.6419 135.514 61.6419C137.381 61.6419 138.893 60.5673 139.767 59.1822V53.2837ZM118.786 64.5315C120.18 64.5315 121.456 64.2688 122.59 63.7434C123.748 63.218 124.74 62.4539 125.615 61.4509L123.701 59.3971C123.063 60.0897 122.354 60.5912 121.551 61.021C120.771 61.427 119.873 61.618 118.857 61.618C116.471 61.618 114.392 59.8031 114.084 57.4151H126.111V57.3195L126.115 57.2559C126.137 56.8974 126.158 56.5579 126.158 56.1971C126.158 51.7315 122.992 48.1016 118.597 48.1016C114.179 48.1016 110.848 51.636 110.848 56.3165C110.848 61.0927 114.179 64.5315 118.786 64.5315ZM97.2855 62.5733V69.9285H94.143V48.5076H97.2146V50.2748C98.3014 48.9852 99.8608 48.1255 102.082 48.1255C106.476 48.1255 109.312 51.6598 109.312 56.2927C109.312 60.9016 106.476 64.4598 102.082 64.4598C100.215 64.4837 98.4668 63.7912 97.2855 62.5733ZM97.3327 59.3494C98.2542 60.7106 99.79 61.5464 101.586 61.5464C104.303 61.5464 106.193 59.2061 106.193 56.2927C106.193 53.3792 104.397 50.9912 101.586 50.9912C99.7191 50.9912 98.2069 52.0658 97.3327 53.4509V59.3494ZM83.0382 56.1016L77.5803 48.5076H81.4316L85.0702 53.6897L88.7088 48.5076H92.5128L87.0549 56.1255L92.7963 64.1255H88.9214L85.0465 58.5852L81.1717 64.1255H77.2968L83.0382 56.1016ZM67.2788 54.9554H75.3121V51.8986H67.2788V46.3345H75.9973V43.2539H63.782V64.1255H76.0682V61.0688H67.2788V54.9554ZM54.0281 45.9612C52.2249 42.7638 49.304 40.1921 45.589 38.9076C37.5084 36.1136 28.7191 40.4837 25.9547 48.6509C24.5298 52.8969 25.008 57.3366 26.9344 61.0136C26.9308 61.016 26.9273 61.0185 26.9238 61.0209L26.9239 61.021C27.0731 61.2849 27.2223 61.5488 27.3831 61.8127C29.1994 64.8378 32.0375 67.2611 35.6183 68.4957C43.6988 71.2897 52.4881 66.9195 55.2289 58.7524C56.6484 54.5585 56.1989 50.1756 54.3314 46.5255C54.3314 46.5255 54.3314 46.5254 54.3315 46.5254C54.2381 46.3367 54.1356 46.1479 54.0281 45.9612ZM54.0281 45.9612C53.8906 45.7227 53.7448 45.4874 53.599 45.2597C52.843 45.6418 52.0869 46 51.3544 46.3343C49.3461 47.2896 47.4559 48.197 45.4004 49.3194L34.9099 43.9463L33.9411 44.5194L40.5804 49.8926L41.6436 51.4926C41.6436 51.4926 39.6589 52.6388 38.3358 53.4269C36.7081 54.3567 29.1453 59.4762 26.9344 61.0136C27.0762 61.2842 27.2258 61.5507 27.3831 61.8127C27.426 61.8831 27.4697 61.9535 27.5145 62.0239C29.9245 60.8538 38.1232 56.7941 39.7298 55.8388C41.0529 55.0508 43.0376 53.9045 43.0376 53.9045L43.8646 55.6239L45.1405 64.1254L46.1092 63.5523L46.7471 51.6836C48.5271 50.5699 50.098 49.4754 51.7156 48.3484C51.9016 48.2188 52.0883 48.0888 52.2759 47.9582C52.9374 47.5045 53.6226 47.0269 54.3314 46.5255C54.2341 46.3354 54.133 46.1472 54.0281 45.9612ZM114.156 54.7404H122.875C122.568 52.5672 120.796 50.9434 118.527 50.9434C117.393 50.9434 116.354 51.4448 115.55 52.1851C114.818 52.9016 114.298 53.8329 114.156 54.7404Z" fill="#545454"/>
</g>
<defs>
<clipPath id="clip0_791766_955">
<rect width="142" height="32" fill="white" transform="translate(25 38)"/>
</clipPath>
</defs>
</svg>