<svg width="192" height="108" viewBox="0 0 192 108" fill="none" xmlns="http://www.w3.org/2000/svg">
<g clip-path="url(#clip0_791764_8719)">
<path d="M40.9281 44.9318C41.2781 45.3218 41.9481 46.6418 42.1081 47.1218L48.2581 64.7918C48.3681 65.0518 48.3981 65.5718 48.7581 65.5718C49.0381 65.5718 49.0981 64.9818 49.1881 64.7518L52.4181 55.8818L55.5681 64.3118C55.6981 64.6518 55.8881 65.5718 56.2181 65.5718C56.4881 65.5718 56.5881 65.1318 56.7281 64.7118L62.8181 47.2918C63.3281 45.8918 63.9181 44.4118 64.8881 44.2418C65.2681 44.1918 65.4581 44.0418 65.4581 44.0418C65.4581 43.7918 65.4081 43.7318 65.0581 43.7318C64.3881 43.7318 63.9781 43.8418 63.3081 43.8418C62.5781 43.8418 62.0181 43.7618 61.3981 43.7618C61.0481 43.7618 61.0781 43.8718 61.0781 44.0718C61.0781 44.2918 61.7481 44.1518 62.1281 44.9918C62.3481 45.4418 62.2581 46.3918 62.0481 46.9518L56.8781 61.1418L54.6681 54.8418L53.8081 52.5418C53.8081 52.5418 53.6781 52.6018 54.2881 50.6918L55.4981 47.0518C56.0881 45.2618 56.6781 44.3218 57.4381 44.3118C58.3881 44.2918 58.3881 43.7218 57.6581 43.7218C56.9281 43.7218 56.4881 43.7818 55.8481 43.7818C55.2081 43.7818 54.8281 43.7218 54.0981 43.7218C53.8281 43.7218 53.5281 43.8018 53.5581 44.0318C53.5881 44.2518 53.9881 44.1718 54.2881 44.3418C54.7781 44.5918 55.0981 45.6318 54.7481 46.7218L53.3181 51.2818L51.6981 47.0318C51.3781 46.2218 50.9481 44.4318 51.7281 44.2718C52.4781 44.1218 52.3781 43.7318 51.9181 43.7318C51.0281 43.7318 50.5581 43.8418 49.6981 43.8418C48.7581 43.8418 48.0581 43.7318 47.1681 43.7318C46.9781 43.7318 46.6281 43.7618 46.7381 44.1218C46.7881 44.3418 47.2481 44.2618 47.5181 44.4318C48.5981 45.1318 48.8081 46.0318 49.1881 47.0318L51.5581 53.7218C51.9881 54.9218 52.0181 54.4818 51.6681 55.5118L49.5981 61.1918L44.5081 46.6118C44.1081 45.5218 43.8881 44.7618 44.7781 44.3418C45.1581 44.1418 45.2681 44.1118 45.3181 44.0318C45.3681 43.9618 45.4181 43.7018 44.8581 43.7218C43.9381 43.7518 43.3781 43.8318 42.4581 43.8318C41.4881 43.8318 40.8181 43.7218 39.9281 43.7218C39.6281 43.7218 39.5781 43.8618 39.5781 44.0818C39.5781 44.4218 40.3081 44.1918 40.9281 44.9218V44.9318Z" fill="#545454"/>
<path d="M139.586 54.8416V62.7316C139.586 64.8016 138.196 64.3016 137.876 64.8416C137.716 65.1216 138.136 65.1816 138.486 65.1816C138.806 65.1816 139.346 65.0516 140.756 65.0516C142.306 65.0516 142.846 65.1816 143.296 65.1816C143.696 65.1816 144.156 65.0016 143.886 64.7316C143.456 64.3116 141.536 64.7916 141.536 62.6016V55.2816C141.506 54.7716 142.446 52.8016 144.696 52.8016C146.946 52.8016 147.826 55.1916 147.826 56.7816V62.7316C147.796 65.0716 146.996 64.3316 146.676 64.8016C146.496 65.0616 146.806 65.1816 147.156 65.1816C147.506 65.1816 148.066 65.0516 149.086 65.0516C150.396 65.0516 150.966 65.1716 151.316 65.1716C151.586 65.1716 152.066 64.9616 151.766 64.7216C151.086 64.1816 149.756 65.0116 149.776 62.6016V57.3516C149.776 54.9316 148.996 51.4016 145.416 51.4016C142.826 51.4016 141.486 53.8616 141.536 53.4816V51.6516C141.536 51.3316 141.376 51.1416 141.216 51.1416C140.596 51.1416 140.146 52.1816 138.046 52.8116C137.916 52.8416 137.526 52.8516 137.516 53.0916C137.516 53.7616 139.616 52.2216 139.586 54.8316V54.8416Z" fill="#545454"/>
<path d="M61.1767 56.3417C61.4367 56.6317 62.4767 55.5117 62.5367 55.4517C62.5967 55.3917 62.6167 55.3217 62.6167 55.3217C62.6167 53.9817 63.6167 52.2717 65.0667 52.1317C66.7167 51.9717 67.5467 53.2017 67.5467 54.8717V57.0317C61.2867 58.2817 60.3867 60.3617 60.3867 62.0617C60.3867 64.3417 61.9867 65.3617 63.7267 65.3617C65.2267 65.3617 66.6967 64.6517 67.8167 63.5017C68.1667 64.5617 68.8567 65.2017 69.9067 65.1717C70.2667 65.1717 70.3267 65.2617 71.4167 64.7917C71.7967 64.6917 71.7767 64.7017 72.2167 64.7817C72.7967 64.9817 73.5767 65.3717 74.9667 65.3717C77.0667 65.4017 78.9467 63.4617 78.9467 61.0617C78.9467 59.5817 78.5167 58.6417 76.4867 57.3817C75.9567 57.1317 75.1767 56.6817 74.7867 56.4717C73.1067 55.5517 72.4467 54.9517 72.3967 54.0917C72.3167 52.6017 73.5867 51.8317 74.6767 51.9417C77.2967 51.9017 77.6467 54.8317 77.9167 54.8317C78.3167 54.8317 78.2067 54.4517 78.2067 53.5817C78.2067 53.3617 78.2367 52.2717 78.0767 52.0117C77.7567 51.5317 75.9067 51.2517 75.4467 51.2517C75.3367 51.2517 74.9067 51.2417 74.8267 51.2317C74.6967 51.2317 74.5367 51.2517 74.5367 51.2517C72.6667 51.2217 70.9267 52.4017 70.9767 54.9017C71.0267 57.1817 73.7067 58.4817 75.1467 59.3417C76.2167 59.9517 77.4767 60.5317 77.4567 61.9917C77.4367 63.6517 76.1467 64.7617 74.7567 64.6717C71.5067 64.6217 71.9467 60.5417 71.3667 60.5417C70.9667 60.5417 71.0467 61.5717 71.0467 62.1117C71.0467 62.6417 71.0367 63.1217 71.0367 63.5317C70.9667 63.9017 70.8267 64.2517 70.4767 64.2717C69.1967 64.3517 69.5067 62.3117 69.5067 61.2217V54.5817C69.4467 52.5517 67.9167 51.2217 65.5867 51.2217C62.3967 51.2217 60.1067 55.1517 61.1967 56.3817L61.1767 56.3417ZM67.7567 61.8317C67.7567 63.5317 66.0267 64.4317 65.0667 64.4317C63.6467 64.4317 62.6567 63.5117 62.6567 61.6817C62.6567 58.8617 66.0467 58.3417 67.7567 57.8917V61.8317Z" fill="#545454"/>
<path d="M94.3383 50.1919C94.6783 50.1919 95.4383 48.9519 95.4383 48.5719C95.4383 48.1919 94.6783 46.9219 94.3383 46.9219C94.0283 46.9219 93.2383 48.2219 93.2383 48.5719C93.2383 48.9219 94.0183 50.1919 94.3383 50.1919Z" fill="#545454"/>
<path d="M96.9877 65.1817C97.3177 65.1817 97.6177 65.1817 97.7477 65.1817C98.0677 65.1817 98.6077 65.0517 100.018 65.0517C101.568 65.0517 102.108 65.1817 102.558 65.1817C102.958 65.1817 103.418 65.0017 103.148 64.7317C102.718 64.3117 100.798 64.7917 100.798 62.6017V55.2817C100.768 54.7717 101.708 52.8017 103.958 52.8017C106.208 52.8017 107.088 55.1917 107.088 56.7817V62.7317C107.088 64.8017 106.258 64.3317 105.938 64.8017C105.758 65.0617 106.068 65.1817 106.418 65.1817C106.768 65.1817 107.328 65.0517 108.348 65.0517C109.308 65.0517 109.928 65.1217 110.318 65.1517C110.018 65.5817 109.818 66.0817 109.788 66.6017C109.648 69.1917 112.818 70.1217 115.478 70.0817C120.768 70.0117 122.258 66.3417 121.168 64.3917C120.038 62.3817 117.618 62.4617 115.298 62.4717C110.958 62.4917 111.778 59.8017 113.548 59.9017C113.958 59.9217 113.758 60.0417 115.168 60.0417C117.678 60.0417 120.088 58.3317 120.018 55.5217C120.018 55.2817 120.068 54.4617 119.468 53.3117C120.648 53.3117 120.178 53.3117 121.958 53.3117V61.1917C121.958 64.7517 123.648 65.3517 124.918 65.3517C126.718 65.3517 128.028 64.1617 128.268 63.6117C129.328 64.7517 130.808 65.3517 132.518 65.3517C135.808 65.3517 138.298 62.3217 138.298 58.3517C138.298 52.3517 134.528 51.1517 132.498 51.1517C129.128 51.1517 126.538 54.5417 126.538 58.5117C126.538 60.5317 127.078 62.1317 128.008 63.2917C127.688 63.5117 127.058 64.0117 125.788 64.0117C124.688 64.0117 124.048 63.3517 123.988 61.9417V53.3117C123.988 53.3117 127.298 53.3117 127.478 53.3117C127.708 53.3117 128.148 51.8217 128.168 51.7417C128.208 51.5517 128.268 51.4017 128.288 51.2717C128.328 50.9817 128.108 50.9617 127.908 51.2717C127.748 51.4217 127.578 51.8417 126.888 51.8417H123.988C123.988 49.3517 124.018 48.2217 123.628 48.2217C123.238 48.2217 123.318 48.3217 122.978 49.4317C122.528 50.9217 121.138 51.7317 120.258 52.2017C119.868 52.2917 119.418 52.3217 118.928 52.2117C118.168 52.0417 117.278 51.1217 114.978 51.1217C112.518 51.1217 110.368 53.1317 110.368 55.8217C110.368 57.2717 111.008 58.6717 112.138 59.4117C111.928 59.5317 110.558 60.6917 110.728 62.0517C110.728 62.0517 110.698 63.4617 111.808 63.9317C111.468 64.0717 111.118 64.3017 110.818 64.5817C110.098 64.3117 109.038 64.5217 109.038 62.6117V57.3617C109.038 54.9417 108.258 51.4117 104.678 51.4117C102.088 51.4117 100.748 53.8717 100.798 53.4917V51.6717C100.798 51.3517 100.638 51.1617 100.478 51.1617C99.8577 51.1617 99.7277 52.1817 97.4777 52.7617C97.3477 52.7917 97.0377 52.8617 97.0277 53.1117C97.0277 53.7817 98.8377 52.3817 98.8477 54.8517V62.7417C98.8477 64.4417 97.4977 64.4417 97.2577 64.4617C97.1577 64.4617 97.0577 64.4617 96.9377 64.4617C96.3677 64.4117 95.3777 64.1517 95.3777 63.0817V51.6517C95.3777 51.3317 95.2177 51.1417 95.0577 51.1417C94.4377 51.1417 94.0477 52.2617 92.3377 52.8317C92.2077 52.8617 91.9577 52.8917 91.9577 53.0817C91.9577 53.7517 93.4977 52.4517 93.4277 54.8317V62.3417C93.4877 64.1817 92.5377 64.4217 91.9477 64.4417C91.2377 64.3517 90.6877 64.0617 90.6877 62.9817V57.6717C90.6877 54.9317 89.6477 51.4017 86.2177 51.4017C84.6977 51.4017 83.3777 52.2417 82.3677 53.3817V44.2317C82.3677 43.9117 82.2077 43.7317 82.0477 43.7217C81.6377 43.6917 80.9477 44.9517 78.9877 45.4017C78.8577 45.4317 78.3477 45.4717 78.3477 45.6617C78.3477 46.3317 80.3777 45.3417 80.4077 47.4117V63.0117C80.4077 64.5717 79.0677 64.3617 78.8277 64.8617C78.7877 65.0817 78.9077 65.1817 79.0977 65.1817C79.5277 65.1817 80.6977 65.0617 81.5277 65.0617C82.3577 65.0617 83.6977 65.1817 84.2577 65.1817C84.5777 65.1817 84.7077 65.1217 84.7077 64.7317C84.4277 64.1917 82.3577 65.0217 82.3577 62.2817V55.5717C82.3577 53.9517 84.2877 52.7017 85.4877 52.7017C86.4277 52.7017 88.7277 53.4317 88.7277 57.3817V63.2017C88.7277 64.3517 87.5077 64.4717 87.4177 64.8217C87.4177 65.0717 87.5777 65.1717 87.8477 65.1717C88.1377 65.1717 88.9977 65.0517 90.0377 65.0517C90.6177 65.0517 91.1477 65.0817 91.5877 65.1117C91.8277 65.1617 92.1777 65.1617 92.6077 65.1617C92.8977 65.1617 93.6377 65.0517 94.4877 65.0517C95.3377 65.0517 96.0177 65.1217 96.5477 65.1617C96.6477 65.1617 96.7577 65.1717 96.8577 65.1717C96.8977 65.1717 96.9477 65.1717 96.9777 65.1717L96.9877 65.1817ZM132.088 52.1117C135.268 52.1117 136.418 55.5117 136.418 58.8317C136.418 62.8317 134.998 64.4217 132.758 64.4217C129.628 64.4217 128.398 60.5417 128.398 57.3817C128.398 54.6417 129.468 52.1117 132.088 52.1117ZM115.108 51.7217C117.288 51.7217 118.158 53.9517 118.158 55.9217C118.158 57.8917 117.248 59.4617 115.218 59.4617C113.068 59.4617 112.348 57.3917 112.348 55.4217C112.348 53.4517 112.958 51.7217 115.108 51.7217ZM113.128 64.1717C113.348 64.1617 113.408 64.2517 115.858 64.3517C118.388 64.4117 119.298 65.1517 119.458 65.8017C119.728 66.9617 118.908 69.4417 115.278 69.2017C112.988 69.0517 112.318 67.9617 112.148 67.7117C111.298 66.5017 111.998 64.2417 113.138 64.1717H113.128Z" fill="#545454"/>
<path d="M98.457 74.6117C98.457 74.8517 99.007 75.7417 99.227 75.7417C99.467 75.7417 99.997 74.8717 99.997 74.6117C99.997 74.3517 99.467 73.4517 99.227 73.4517C99.007 73.4517 98.457 74.3717 98.457 74.6117Z" fill="#545454"/>
<path d="M109.248 84.4719V80.7819C109.248 79.0819 108.698 76.6019 106.188 76.6019C104.368 76.6019 103.428 78.3319 103.468 78.0619V76.7819C103.468 76.5619 103.358 76.4219 103.238 76.4219C102.808 76.4219 102.488 77.1519 101.018 77.5919C100.928 77.6119 100.658 77.6119 100.648 77.7819C100.648 78.2519 102.118 77.1719 102.098 79.0119V84.5519C102.098 85.5919 101.588 85.6719 101.218 85.7719C101.198 85.7719 101.178 85.7719 101.148 85.7719C100.768 85.7519 99.968 85.6019 99.968 84.7919V76.7619C99.968 76.5419 99.858 76.4019 99.738 76.4019C99.308 76.4019 99.028 77.1919 97.828 77.5919C97.738 77.6119 97.558 77.6319 97.558 77.7719C97.558 78.2419 98.638 77.3319 98.588 79.0019V84.2819C98.628 85.6319 97.888 85.7619 97.488 85.7619C96.878 85.7619 97.028 85.8319 97.028 86.0219C97.048 86.2419 97.418 86.2619 98.018 86.2619C98.228 86.2619 98.738 86.1819 99.338 86.1819C100.108 86.1819 100.688 86.2719 101.088 86.2719C101.318 86.2719 101.928 86.1819 102.918 86.1819C104.008 86.1819 104.388 86.2719 104.698 86.2719C104.978 86.2719 105.308 86.1519 105.108 85.9619C104.808 85.6619 103.458 86.0119 103.458 84.4619V79.3219C103.438 78.9619 104.098 77.5819 105.678 77.5819C107.258 77.5819 107.878 79.2619 107.878 80.3719V84.5519C107.858 86.1919 107.288 85.6719 107.068 86.0019C106.948 86.1919 107.158 86.2719 107.408 86.2719C107.658 86.2719 108.048 86.1819 108.758 86.1819C109.678 86.1819 110.078 86.2719 110.328 86.2719C110.518 86.2719 110.858 86.1319 110.648 85.9619C110.178 85.5819 109.238 86.1619 109.248 84.4719Z" fill="#545454"/>
<path d="M127.667 84.062C127.447 84.062 126.887 85.002 126.887 85.242C126.887 85.482 127.447 86.402 127.667 86.402C127.907 86.402 128.447 85.512 128.447 85.242C128.447 84.972 127.907 84.062 127.667 84.062Z" fill="#545454"/>
<path d="M152.116 84.8717V77.0117C152.116 76.5717 151.866 76.4517 151.796 76.4517C151.516 76.4517 151.356 76.5217 151.156 76.5717C150.966 76.6417 150.736 76.7417 150.216 76.7417C150.126 76.7417 149.636 76.6617 149.666 76.9217C149.696 77.1817 150.806 77.0317 150.816 77.8117V83.4917C150.726 84.4817 149.896 85.5817 148.886 85.5817C148.656 85.5817 147.146 85.4217 147.166 82.9317V77.0117C147.166 76.5717 146.916 76.4517 146.846 76.4517C146.566 76.4517 146.406 76.5217 146.206 76.5717C146.016 76.6417 145.766 76.7317 145.246 76.7117C144.976 76.7017 144.666 76.6617 144.716 76.9217C144.756 77.1517 145.866 76.9217 145.866 77.8117V83.2617C145.866 85.2517 147.036 86.4017 148.446 86.4017C149.386 86.4017 150.256 86.2017 150.796 85.1017H150.836V86.0517C150.836 86.1417 150.856 86.4017 150.996 86.4017C151.256 86.4017 151.406 86.1817 151.596 86.1117C151.806 86.0617 151.866 85.8717 152.526 85.8117C152.806 85.7917 153.126 85.6417 153.126 85.4517C153.026 85.0517 152.096 85.4817 152.096 84.8717H152.116Z" fill="#545454"/>
<path d="M141.027 76.4316C138.657 76.4316 136.837 78.8116 136.837 81.6016C136.837 82.8616 137.147 83.8816 137.667 84.6616C137.087 85.0816 136.047 85.4716 134.057 85.4716C132.507 85.4716 132.657 84.9416 132.657 83.6216V73.1316C132.657 71.2016 134.107 71.7616 134.137 71.4116C134.157 71.1716 133.937 71.2216 133.697 71.2216C133.417 71.2216 132.927 71.3316 131.877 71.3316C130.977 71.3316 130.177 71.2416 129.787 71.2416C129.547 71.2416 129.327 71.3116 129.407 71.4916C129.587 71.9016 130.957 71.5316 130.957 72.6816V83.6316C130.957 84.6816 131.117 85.3416 130.637 85.6116C130.047 85.9716 129.357 85.9816 129.417 86.2116C129.457 86.3516 129.747 86.3616 129.907 86.3616C130.647 86.3616 131.667 86.2716 132.397 86.2516C133.797 86.2116 135.197 86.3416 136.597 86.3416C137.407 86.3416 137.617 86.1816 138.207 85.3816C138.217 85.3616 138.227 85.3516 138.247 85.3316C138.977 86.0116 139.937 86.3916 141.047 86.3916C143.357 86.3916 145.107 84.2616 145.107 81.4716C145.107 77.2516 142.457 76.4216 141.027 76.4216V76.4316ZM141.217 85.7516C139.017 85.7516 138.157 83.0216 138.157 80.8016C138.157 78.8716 138.907 77.1016 140.747 77.1016C142.977 77.1016 143.787 79.4916 143.787 81.8216C143.787 84.6316 142.787 85.7516 141.217 85.7516Z" fill="#545454"/>
<path d="M117.977 78.142C117.437 77.872 116.637 77.392 116.237 77.162C114.517 76.172 113.837 75.532 113.797 74.602C113.717 73.002 115.277 72.052 116.397 72.172C117.817 72.172 118.987 73.032 119.477 74.882C119.527 75.072 119.707 75.522 119.887 75.522C120.047 75.522 120.077 75.372 120.067 75.202L119.827 72.282C119.807 72.042 119.727 71.982 119.637 71.982C119.477 71.982 119.377 72.222 119.237 72.222C119.007 72.222 118.437 71.412 116.487 71.432C116.357 71.432 116.177 71.452 116.177 71.452C114.267 71.422 112.477 72.682 112.537 75.372C112.587 77.822 115.327 79.212 116.807 80.142C117.897 80.792 119.047 81.842 119.007 83.002C118.947 84.792 117.827 85.962 116.407 85.862C113.077 85.802 113.537 81.422 112.937 81.422C112.527 81.422 112.607 82.522 112.607 83.112C112.607 84.502 112.547 85.642 112.707 85.842C112.757 85.902 112.917 85.872 113.247 85.872C113.907 85.872 114.707 86.632 116.617 86.632C118.757 86.662 120.517 84.682 120.517 82.102C120.517 80.512 120.077 79.502 117.997 78.152L117.977 78.142Z" fill="#545454"/>
<path d="M155.469 75.7417C155.709 75.7417 156.239 74.8717 156.239 74.6117C156.239 74.3517 155.709 73.4517 155.469 73.4517C155.249 73.4517 154.699 74.3717 154.699 74.6117C154.699 74.8517 155.249 75.7417 155.469 75.7417Z" fill="#545454"/>
<path d="M157.386 85.7816C157.006 85.7616 156.206 85.6116 156.206 84.8016V76.7716C156.206 76.5516 156.096 76.4116 155.976 76.4116C155.546 76.4116 155.266 77.2016 154.066 77.6016C153.976 77.6216 153.796 77.6416 153.796 77.7816C153.796 78.2516 154.876 77.3416 154.826 79.0116V84.2916C154.866 85.6416 154.126 85.7716 153.726 85.7716C153.116 85.7716 153.266 85.8416 153.266 86.0316C153.286 86.2516 153.656 86.2716 154.256 86.2716C154.466 86.2716 154.976 86.1916 155.576 86.1916C156.346 86.1916 156.926 86.2816 157.326 86.2816C157.566 86.2816 157.876 85.7016 157.376 85.7816H157.386Z" fill="#545454"/>
<path d="M161.717 80.782C161.347 80.602 160.797 80.292 160.517 80.142C159.337 79.492 158.877 79.072 158.837 78.472C158.787 77.422 159.667 76.882 160.437 76.962C162.277 76.932 162.527 78.992 162.707 78.992C162.987 78.992 162.917 78.722 162.917 78.112C162.917 77.952 162.937 77.192 162.827 77.012C162.597 76.672 161.297 76.472 160.977 76.472C160.897 76.472 160.597 76.472 160.547 76.472C160.457 76.472 160.337 76.472 160.337 76.472C159.027 76.452 157.797 77.282 157.837 79.042C157.877 80.642 159.757 81.552 160.767 82.162C161.517 82.592 162.407 82.992 162.387 84.022C162.367 85.192 161.467 85.962 160.497 85.902C158.217 85.862 158.527 83.002 158.117 83.002C157.837 83.002 157.897 83.722 157.897 84.102C157.897 85.012 157.857 85.752 157.967 85.882C157.997 85.922 158.107 85.902 158.337 85.902C158.787 85.902 159.337 86.402 160.647 86.402C162.117 86.422 163.437 85.062 163.437 83.372C163.437 82.332 163.137 81.672 161.707 80.792L161.717 80.782Z" fill="#545454"/>
<path d="M126.365 84.9016C126.175 84.9916 125.745 85.4616 124.715 85.4616C123.935 85.4616 123.495 85.0016 123.455 84.0016V77.6016C123.455 77.6016 125.775 77.6016 125.905 77.6016C126.065 77.6016 126.375 76.5516 126.385 76.5016C126.415 76.3716 126.455 76.2616 126.475 76.1716C126.505 75.9716 126.355 75.9516 126.215 76.1716C126.105 76.2816 125.985 76.5716 125.495 76.5716H123.455C123.455 74.8216 123.475 74.3716 123.205 74.3716C122.935 74.3716 122.985 74.4416 122.745 75.2216C122.355 76.5216 120.925 77.0916 120.465 77.3716C120.355 77.4216 120.355 77.4516 120.355 77.5116C120.355 77.6816 120.895 77.6116 122.035 77.6416V83.4916C122.035 85.9916 123.225 86.4116 124.115 86.4116C125.475 86.4116 126.445 85.4416 126.495 85.1016C126.495 84.9116 126.475 84.8916 126.365 84.9016Z" fill="#545454"/>
<path d="M67.3859 84.1017C66.9759 84.1017 66.3559 85.2717 64.7359 85.2717C63.5859 85.2717 61.7059 84.1617 61.7059 80.4417H66.7159C67.1459 80.4417 67.3559 80.4617 67.3559 80.0617C67.3559 79.1617 66.3359 76.4717 64.0259 76.4717C61.7159 76.4717 60.3359 78.8817 60.3359 81.7717C60.3359 83.2617 61.3159 86.4017 64.1359 86.4017C65.8259 86.4017 67.4659 84.7817 67.4659 84.2617C67.4659 84.1917 67.4659 84.1017 67.3859 84.1017ZM63.6959 76.9917C64.7259 76.9917 65.7859 78.1217 65.7859 79.3817C65.7859 79.7217 65.6759 79.8317 65.4059 79.8317H61.6959C61.6959 78.5917 62.5259 76.9917 63.6859 76.9917H63.6959Z" fill="#545454"/>
<path d="M40.4374 71.4916C40.1374 71.4916 39.4474 71.5716 39.1274 71.5716C38.4774 71.5716 37.9374 71.5116 37.2874 71.5116C37.2374 71.5116 36.9574 71.5516 36.9574 71.6416C36.9574 72.1016 38.4974 71.5616 38.4974 73.5216V81.1916C38.4974 83.4616 37.7874 85.8416 34.6574 85.8416C32.4174 85.8416 31.1974 84.4416 31.1974 81.3616V73.0216C31.1974 71.6416 32.2774 71.9316 32.3074 71.6316C32.3274 71.3316 31.3474 71.5116 31.2674 71.5116C30.7574 71.5116 30.3874 71.5616 29.8574 71.5616C29.4074 71.5616 28.8674 71.4916 28.4374 71.4916C28.3574 71.4916 28.0474 71.4716 27.9974 71.6016C27.8274 72.0116 29.3774 71.7916 29.3774 72.9316V80.8516C29.3774 83.8116 30.2074 86.7116 34.5774 86.6316C39.7574 86.5416 39.6574 81.8916 39.6574 80.9416V73.5416C39.6574 71.7716 40.5274 71.9416 40.6874 71.6716C40.7574 71.5516 40.5074 71.5016 40.4274 71.5016L40.4374 71.4916Z" fill="#545454"/>
<path d="M61.1593 76.9218C61.2893 76.7718 61.3193 76.5318 60.7393 76.5918C60.4193 76.5918 60.1793 76.6518 59.8593 76.6518C59.4493 76.6518 59.3693 76.6418 58.9693 76.6218C58.4793 76.6018 58.3393 76.6618 58.3693 76.8118C58.4593 77.2518 59.4893 76.8118 59.3493 78.1118C59.2293 79.2018 58.8793 80.1318 58.5193 81.0618L57.2593 84.4118L55.4193 78.8318C55.1893 78.1318 55.0993 77.7618 55.0993 77.6918C55.0993 76.9918 55.9393 77.1518 56.1293 76.8618C56.2493 76.6718 55.9993 76.5718 55.7393 76.5718C55.5193 76.5718 55.2593 76.6518 54.5593 76.6618C53.9793 76.6818 53.5693 76.6718 53.3193 76.6318C52.6693 76.5118 52.7193 76.8718 52.9493 76.9818C53.1693 77.0918 53.2793 76.9818 53.6093 77.9618L56.4493 85.9818C56.5093 86.1418 56.5793 86.5418 56.8293 86.5418C57.1093 86.5418 57.1093 86.2618 57.4693 85.3118C57.4693 85.3118 60.1893 77.7118 60.3693 77.4418C60.7393 76.9018 61.0193 77.0818 61.1493 76.9218H61.1593Z" fill="#545454"/>
<path d="M71.6456 76.5616C70.8756 76.5616 70.3356 77.4916 69.9556 78.1316H69.9156V76.7416C69.9156 76.5216 69.8056 76.3916 69.6956 76.3916C69.4056 76.3916 69.1756 76.9816 67.6156 77.3516C67.5256 77.3716 67.2656 77.4216 67.2656 77.5616C67.2656 78.0316 68.5856 77.4216 68.5856 78.9616V84.8116C68.5856 85.7216 67.6556 85.6316 67.6556 86.0916C67.6556 86.2216 67.7056 86.2916 67.8556 86.2916C67.9856 86.2916 68.3156 86.2016 69.5356 86.2016C70.5656 86.2016 71.0056 86.2916 71.2556 86.2916C71.4556 86.2916 71.5456 86.2516 71.5456 86.0516C71.5456 85.3416 69.9156 86.4016 69.9156 84.3516V79.3616C69.9156 79.0716 70.3556 78.0616 71.1056 78.0616C71.7656 78.0616 71.8456 78.5716 72.1956 78.5716C72.4156 78.5716 72.8556 77.9116 72.8556 77.5816C72.8556 77.1616 72.0356 76.5916 71.6456 76.5916V76.5616Z" fill="#545454"/>
<path d="M91.7983 86.332L91.7483 86.472L91.7383 86.502L91.7983 86.332Z" fill="#545454"/>
<path d="M95.2662 76.6318C95.0662 76.6318 94.5663 76.6618 94.1163 76.6618C93.5663 76.6618 93.2962 76.5918 93.0562 76.5918C92.7062 76.5918 92.3663 76.5918 92.4263 76.8218C92.4963 77.0818 93.6863 76.9918 93.6863 78.2818C93.6863 78.4518 93.6862 78.6618 93.4462 79.5218L91.9362 84.3318L89.8363 78.4218C89.8363 78.4218 89.7363 78.2318 89.7363 77.8518C89.7363 76.8918 90.8563 77.0018 90.8963 76.8318C90.9363 76.6918 90.7463 76.5418 90.4463 76.5418C90.1363 76.5418 89.6662 76.5418 88.9762 76.5418C88.8562 76.5418 88.7662 76.5418 88.6662 76.5418H87.8162C87.8162 76.5418 87.7963 76.5418 87.7863 76.5418H85.7562C85.7562 74.7918 85.7762 74.3418 85.5062 74.3418C85.2362 74.3418 85.2862 74.4118 85.0462 75.1918C84.6562 76.4918 83.2263 77.0618 82.7663 77.3418C82.6563 77.3918 82.6562 77.4218 82.6562 77.4818C82.6562 77.6418 83.1963 77.5818 84.3363 77.6118V83.4618C84.3363 85.9618 85.5162 86.3818 86.4162 86.3818C87.7762 86.3818 88.7462 85.4218 88.7962 85.0718C88.7962 84.8818 88.7762 84.8618 88.6662 84.8718C88.4762 84.9618 88.0463 85.4318 87.0163 85.4318C86.2363 85.4318 85.7962 84.9718 85.7562 83.9718V77.5718C85.7562 77.5718 87.5763 77.5718 88.0763 77.5718C88.1063 77.6118 88.1263 77.6618 88.1463 77.7118L90.3162 83.8418C90.4962 84.3418 90.5963 84.5118 90.8063 85.3918C90.9463 85.9718 90.8963 86.4818 90.8963 86.4818C90.6863 87.4018 90.1162 87.9318 89.2562 89.6318C89.1762 89.7918 90.5062 89.6118 90.5662 89.5918C90.6762 89.5618 90.6563 89.5318 90.7863 89.2918L91.7463 86.4318L94.4263 78.2018C94.8163 76.7618 95.4363 77.0318 95.5363 76.8318C95.5963 76.7118 95.4962 76.5918 95.2662 76.5918V76.6318Z" fill="#545454"/>
<path d="M81.8681 74.6117C81.8681 74.3517 81.3381 73.4517 81.0981 73.4517C80.8781 73.4517 80.3281 74.3717 80.3281 74.6117C80.3281 74.8517 80.8781 75.7417 81.0981 75.7417C81.3381 75.7417 81.8681 74.8717 81.8681 74.6117Z" fill="#545454"/>
<path d="M83.0074 85.7816C82.6274 85.7616 81.8274 85.6116 81.8274 84.8016V76.7716C81.8274 76.5516 81.7174 76.4116 81.5974 76.4116C81.1674 76.4116 80.8874 77.2016 79.6874 77.6016C79.5974 77.6216 79.4174 77.6416 79.4174 77.7816C79.4174 78.2516 80.4974 77.3416 80.4474 79.0116V84.2916C80.4874 85.6416 79.7474 85.7716 79.3474 85.7716C78.7374 85.7716 78.8874 85.8416 78.8874 86.0316C78.9074 86.2516 79.2774 86.2716 79.8774 86.2716C80.0874 86.2716 80.5974 86.1916 81.1974 86.1916C81.9674 86.1916 82.5474 86.2816 82.9474 86.2816C83.1874 86.2816 83.4974 85.7016 82.9974 85.7816H83.0074Z" fill="#545454"/>
<path d="M50.6172 74.6117C50.6172 74.8517 51.1672 75.7417 51.3872 75.7417C51.6272 75.7417 52.1572 74.8717 52.1572 74.6117C52.1572 74.3517 51.6272 73.4517 51.3872 73.4517C51.1672 73.4517 50.6172 74.3717 50.6172 74.6117Z" fill="#545454"/>
<path d="M53.3062 85.7816C52.9262 85.7616 52.1262 85.6116 52.1262 84.8016V76.7716C52.1262 76.5516 52.0162 76.4116 51.8962 76.4116C51.4662 76.4116 51.1862 77.2016 49.9862 77.6016C49.8962 77.6216 49.7162 77.6416 49.7162 77.7816C49.7162 78.2516 50.7963 77.3416 50.7463 79.0116V84.2916C50.7863 85.6416 50.0462 85.7716 49.6462 85.7716C49.5962 85.7716 49.5563 85.7716 49.5163 85.7716C49.1263 85.7016 48.7563 85.5416 48.7563 84.4716V80.7816C48.7563 79.0816 48.2063 76.6016 45.6963 76.6016C43.8763 76.6016 42.9362 78.3316 42.9762 78.0616V76.7816C42.9762 76.5616 42.8663 76.4216 42.7463 76.4216C42.3163 76.4216 41.9962 77.1516 40.5262 77.5916C40.4362 77.6116 40.1662 77.6116 40.1562 77.7816C40.1562 78.2516 41.6362 77.1716 41.6062 79.0116V84.5516C41.6062 86.0016 40.6262 85.6516 40.4062 86.0316C40.2963 86.2216 40.5963 86.2716 40.8363 86.2716C41.0663 86.2716 41.4362 86.1816 42.4362 86.1816C43.5262 86.1816 43.9062 86.2716 44.2162 86.2716C44.4962 86.2716 44.8262 86.1516 44.6262 85.9616C44.3262 85.6616 42.9762 86.0116 42.9762 84.4616V79.3216C42.9562 78.9616 43.6163 77.5816 45.1963 77.5816C46.7763 77.5816 47.3962 79.2616 47.3962 80.3716V84.5516C47.3762 86.1916 46.8063 85.6716 46.5863 86.0016C46.4663 86.1916 46.6763 86.2716 46.9263 86.2716C47.1763 86.2716 47.5663 86.1816 48.2763 86.1816C49.1963 86.1816 49.5963 86.2716 49.8463 86.2716C49.8663 86.2716 49.8863 86.2716 49.9163 86.2616C50.0063 86.2616 50.0863 86.2616 50.1863 86.2616C50.3963 86.2616 50.9062 86.1816 51.5063 86.1816C52.2763 86.1816 52.8563 86.2716 53.2563 86.2716C53.4963 86.2716 53.8062 85.6916 53.3062 85.7716V85.7816Z" fill="#545454"/>
<path d="M77.0485 80.7819C76.6785 80.6019 76.1285 80.2919 75.8585 80.1419C74.6785 79.4919 74.2185 79.0719 74.1785 78.4719C74.1285 77.4219 75.0084 76.8819 75.7784 76.9619C77.6184 76.9319 77.8685 78.9919 78.0484 78.9919C78.3285 78.9919 78.2584 78.7219 78.2584 78.1119C78.2584 77.9519 78.2784 77.1919 78.1684 77.0119C77.9384 76.6719 76.6385 76.4719 76.3185 76.4719C76.2385 76.4719 75.9385 76.4719 75.8885 76.4619C75.7985 76.4619 75.6884 76.4719 75.6884 76.4719C74.3784 76.4519 73.1484 77.2819 73.1884 79.0319C73.2284 80.6319 75.1084 81.5419 76.1184 82.1519C76.8684 82.5819 77.7485 82.9819 77.7385 84.0119C77.7285 85.1819 76.8184 85.9619 75.8484 85.8919C73.5684 85.8519 73.8785 82.9919 73.4685 82.9919C73.1885 82.9919 73.2485 83.7119 73.2485 84.0919C73.2485 85.0019 73.2085 85.7419 73.3185 85.8719C73.3485 85.9119 73.4684 85.8919 73.6884 85.8919C74.1384 85.8919 74.6885 86.3919 75.9985 86.3919C77.4685 86.4119 78.7885 85.0519 78.7885 83.3619C78.7885 82.3219 78.4885 81.6619 77.0585 80.7819H77.0485Z" fill="#545454"/>
<path d="M95.7297 20.3315C95.6397 20.3315 91.1797 20.3715 84.9297 19.0815V37.1015C84.9297 37.3815 84.9297 37.5915 84.9297 37.5915V37.6215C84.9697 38.4615 85.2197 39.1215 85.7197 39.6915C86.0497 40.0415 86.4997 40.4115 87.1397 40.7715C87.3197 40.8715 87.4997 40.9615 87.7097 41.0615C87.8597 41.1315 88.0297 41.2015 88.1997 41.2715C88.3397 41.3315 88.7697 41.5215 88.9097 41.5715L95.7197 44.1515L102.53 41.5715C102.68 41.5215 103.11 41.3215 103.24 41.2715C103.41 41.2015 103.57 41.1315 103.73 41.0615C103.93 40.9615 104.12 40.8715 104.3 40.7715C104.94 40.4115 105.39 40.0515 105.72 39.6915C106.22 39.1215 106.47 38.4615 106.51 37.6215V37.5915C106.51 37.5915 106.51 37.3915 106.51 37.1015V19.0815C100.26 20.3715 95.7997 20.3315 95.7097 20.3315H95.7297Z" fill="#545454"/>
<path d="M95.7294 21.4017C95.6494 21.4017 91.5694 21.4417 85.8594 20.2617V24.8617C91.5694 26.0417 95.6494 26.0117 95.7294 26.0017C95.8094 26.0017 99.8894 26.0417 105.599 24.8617V20.2617C99.8894 21.4417 95.8094 21.4117 95.7294 21.4017Z" fill="white"/>
<path d="M95.7294 26.0113C95.6494 26.0113 91.5694 26.0513 85.8594 24.8713V35.1013C91.5694 36.2813 95.6494 36.2513 95.7294 36.2413C95.8094 36.2413 99.8894 36.2813 105.599 35.1013V24.8613C99.8894 26.0413 95.8094 26.0113 95.7294 26.0013V26.0113Z" fill="#545454"/>
<path d="M85.8594 37.1918C85.8994 37.9718 86.1194 38.5818 86.5794 39.1018C86.8794 39.4218 87.2994 39.7618 87.8794 40.0818C88.0394 40.1718 88.2094 40.2618 88.3994 40.3518C88.5394 40.4218 88.6894 40.4818 88.8494 40.5518C88.9694 40.6018 89.3694 40.7818 89.4994 40.8318L95.7294 43.1918L101.959 40.8318C102.089 40.7818 102.489 40.6018 102.609 40.5518C102.769 40.4918 102.919 40.4218 103.059 40.3518C103.249 40.2618 103.419 40.1718 103.579 40.0818C104.159 39.7618 104.579 39.4218 104.879 39.1018C105.329 38.5818 105.559 37.9718 105.599 37.2118V37.1818C105.599 37.1818 105.599 36.9918 105.599 36.7318V35.0918C99.8894 36.2718 95.8094 36.2418 95.7294 36.2318C95.6494 36.2318 91.5694 36.2718 85.8594 35.0918V36.7318C85.8594 36.9918 85.8594 37.1718 85.8594 37.1818V37.1918Z" fill="white"/>
<path fill-rule="evenodd" clip-rule="evenodd" d="M89.3302 21.3418L89.8002 22.7218L91.2602 22.7418L90.0902 23.6018L90.5202 25.0018L89.3302 24.1518L88.1402 25.0018L88.5802 23.6018L87.4102 22.7418L88.8702 22.7218L89.3302 21.3418Z" fill="#545454"/>
<path fill-rule="evenodd" clip-rule="evenodd" d="M102.121 21.3413L102.581 22.7213L104.041 22.7413L102.871 23.6013L103.301 25.0013L102.121 24.1513L100.931 25.0013L101.361 23.6013L100.191 22.7413L101.651 22.7213L102.121 21.3413Z" fill="#545454"/>
<path fill-rule="evenodd" clip-rule="evenodd" d="M95.7169 21.8813L96.1869 23.2613L97.6469 23.2713L96.4769 24.1413L96.9069 25.5413L95.7169 24.6913L94.5369 25.5413L94.9669 24.1413L93.7969 23.2713L95.2569 23.2613L95.7169 21.8813Z" fill="#545454"/>
<path d="M95.7209 36.6113L95.2109 37.1213V38.5013L95.4809 39.2313V40.4713H95.9709V39.2313L96.2409 38.5013V37.1213L95.7209 36.6113Z" fill="#545454"/>
<path d="M95.9709 41.5916V40.8516H95.4809V41.5916L95.2109 42.0716L95.7209 42.7016L96.2409 42.0716L95.9709 41.5916Z" fill="#545454"/>
<path d="M96.3398 40.8516V41.4216L96.6798 41.7716L97.2498 41.3116V40.8516H96.3398Z" fill="#545454"/>
<path d="M96.9598 38.5615L96.3398 39.2415V40.4715H96.8398V39.7415L97.3298 39.2115L97.9398 39.6115L98.3398 39.2115V38.5615H96.9598Z" fill="#545454"/>
<path d="M95.0992 40.8516V41.4216L94.7692 41.7716L94.1992 41.3116V40.8516H95.0992Z" fill="#545454"/>
<path d="M94.4894 38.5615L95.0994 39.2415V40.4715H94.6094V39.7415L94.1194 39.2115L93.5094 39.6115L93.1094 39.2115V38.5615H94.4894Z" fill="#545454"/>
<path d="M100.43 27.6318V33.5018H96.4797L96.2097 33.7418L95.7197 34.1618L95.2397 33.7418L94.9597 33.5018H91.0197V27.6318L90.1797 28.2418V34.3318H94.8297L95.2397 34.6918L95.7197 35.1118L96.2097 34.6918L96.6197 34.3318H101.26V28.2418L100.43 27.6318Z" fill="white"/>
<path d="M96.3616 27.1416L96.2116 27.2716L95.7216 27.6916L95.2416 27.2716L95.0916 27.1416H91.8516V32.6716H95.1016L95.3316 32.8716L95.7216 33.2116L96.1216 32.8716L96.3516 32.6716H99.6016V27.1416H96.3616Z" fill="white"/>
<path d="M102.121 28.8615V32.6115C103.191 32.4615 104.361 32.2515 105.601 32.0015V28.2515C104.351 28.5115 103.181 28.7115 102.121 28.8615Z" fill="white"/>
<path d="M89.3316 28.8615C88.2616 28.7115 87.0916 28.5015 85.8516 28.2515V32.0015C87.1016 32.2615 88.2716 32.4615 89.3316 32.6115V28.8615Z" fill="white"/>
<path d="M102.118 36.1113L101.758 36.4713V37.4413L101.938 37.9513V38.8113H102.288V37.9513L102.468 37.4413V36.4713L102.118 36.1113Z" fill="#545454"/>
<path d="M102.288 39.6011V39.0811H101.938V39.6011L101.758 39.9311L102.118 40.3811L102.468 39.9311L102.288 39.6011Z" fill="#545454"/>
<path d="M102.551 39.0815V39.4815L102.781 39.7315L103.181 39.4015V39.0815H102.551Z" fill="#545454"/>
<path d="M102.981 37.4712L102.551 37.9512V38.8112H102.901V38.3012L103.241 37.9312L103.671 38.2112L103.941 37.9312V37.4712H102.981Z" fill="#545454"/>
<path d="M101.681 39.0815V39.4815L101.451 39.7315L101.051 39.4015V39.0815H101.681Z" fill="#545454"/>
<path d="M101.249 37.4712L101.679 37.9512V38.8112H101.329V38.3012L100.989 37.9312L100.559 38.2112L100.289 37.9312V37.4712H101.249Z" fill="#545454"/>
<path d="M89.3305 36.1113L88.9805 36.4713V37.4413L89.1605 37.9513V38.8113H89.5105V37.9513L89.6905 37.4413V36.4713L89.3305 36.1113Z" fill="#545454"/>
<path d="M89.5105 39.6011V39.0811H89.1605V39.6011L88.9805 39.9311L89.3305 40.3811L89.6905 39.9311L89.5105 39.6011Z" fill="#545454"/>
<path d="M89.7695 39.0811V39.4811L89.9995 39.7311L90.3995 39.4011V39.0811H89.7695Z" fill="#545454"/>
<path d="M90.1995 37.4712L89.7695 37.9512V38.8112H90.1095V38.3012L90.4495 37.9312L90.8795 38.2112L91.1595 37.9312V37.4712H90.1995Z" fill="#545454"/>
<path d="M88.9017 39.0815V39.4815L88.6717 39.7315L88.2617 39.4015V39.0815H88.9017Z" fill="#545454"/>
<path d="M88.47 37.4712L88.9 37.9512V38.8112H88.55V38.3012L88.21 37.9312L87.78 38.2112L87.5 37.9312V37.4712H88.47Z" fill="#545454"/>
</g>
<defs>
<clipPath id="clip0_791764_8719">
<rect width="135.45" height="70.65" fill="white" transform="translate(28 19.0815)"/>
</clipPath>
</defs>
</svg>
