<svg width="192" height="108" viewBox="0 0 192 108" fill="none" xmlns="http://www.w3.org/2000/svg">
<g clip-path="url(#clip0_791764_8700)">
<path d="M70.4632 64.0372H54.8225C54.311 64.0444 53.8072 63.9116 53.3658 63.6532C52.9243 63.3948 52.5618 63.0206 52.3176 62.5712C52.0536 62.0577 51.9592 61.4737 52.0482 60.9032C52.1372 60.3327 52.4049 59.8051 52.8128 59.3964L63.6671 48.5032H55.9001C54.8702 48.5032 53.8824 48.094 53.1541 47.3658C52.4258 46.6375 52.0166 45.6497 52.0166 44.6197H66.4341C66.9456 44.6125 67.4493 44.7453 67.8908 45.0037C68.3323 45.2621 68.6948 45.6362 68.939 46.0857C69.203 46.5992 69.2973 47.1832 69.2084 47.7537C69.1194 48.3242 68.8517 48.8518 68.4438 49.2605L57.5506 60.1537H66.5797C67.6097 60.1537 68.5975 60.5628 69.3258 61.2911C70.0541 62.0194 70.4632 63.0072 70.4632 64.0372ZM132.415 44.2993C131.348 44.3023 130.295 44.5304 129.323 44.9687C128.351 45.4071 127.482 46.0458 126.774 46.843C126.066 46.0458 125.197 45.4071 124.225 44.9687C123.253 44.5304 122.199 44.3023 121.133 44.2993C119.109 44.3525 117.185 45.1942 115.772 46.6451C114.36 48.0959 113.569 50.0412 113.57 52.0663V64.0372C114.08 64.0372 114.585 63.9367 115.056 63.7416C115.527 63.5464 115.955 63.2603 116.316 62.8997C116.677 62.5391 116.963 62.111 117.158 61.6398C117.353 61.1687 117.454 60.6637 117.454 60.1537V51.9886C117.439 51.0197 117.8 50.0828 118.461 49.3736C119.121 48.6644 120.03 48.2378 120.997 48.1828C121.497 48.1578 121.998 48.2347 122.467 48.4088C122.937 48.5828 123.366 48.8505 123.729 49.1954C124.093 49.5404 124.382 49.9555 124.58 50.4156C124.778 50.8758 124.88 51.3713 124.881 51.8721V60.1246C124.881 61.1545 125.29 62.1423 126.018 62.8706C126.746 63.5989 127.734 64.0081 128.764 64.0081V51.9886C128.749 51.0276 129.104 50.0974 129.754 49.3895C130.404 48.6816 131.301 48.2498 132.259 48.1828C132.756 48.1646 133.25 48.2464 133.714 48.4235C134.178 48.6006 134.602 48.8693 134.96 49.2136C135.318 49.5579 135.603 49.9707 135.797 50.4275C135.992 50.8842 136.093 51.3755 136.094 51.8721V60.1246C136.094 61.1545 136.503 62.1423 137.232 62.8706C137.96 63.5989 138.948 64.0081 139.978 64.0081V52.0663C139.979 50.0412 139.188 48.0959 137.775 46.6451C136.363 45.1942 134.439 44.3525 132.415 44.2993V44.2993ZM90.0749 54.3284C90.0691 56.305 89.4778 58.2355 88.3754 59.8762C87.2731 61.5168 85.7093 62.794 83.8816 63.5464C82.0538 64.2989 80.0441 64.4927 78.1062 64.1036C76.1683 63.7145 74.3892 62.7598 72.9936 61.3601C71.598 59.9604 70.6485 58.1785 70.265 56.2395C69.8815 54.3005 70.0812 52.2913 70.8389 50.4658C71.5966 48.6402 72.8784 47.0802 74.5222 45.9826C76.1661 44.8851 78.0983 44.2993 80.0749 44.2993C81.3902 44.3006 82.6924 44.5611 83.9069 45.0659C85.1215 45.5707 86.2247 46.31 87.1534 47.2414C88.0821 48.1728 88.8182 49.2781 89.3195 50.4942C89.8207 51.7102 90.0774 53.0131 90.0749 54.3284ZM86.1914 54.3284C86.1914 53.1187 85.8327 51.9361 85.1606 50.9303C84.4885 49.9244 83.5332 49.1405 82.4156 48.6775C81.2979 48.2146 80.0681 48.0935 78.8816 48.3295C77.6951 48.5655 76.6053 49.148 75.7499 50.0034C74.8945 50.8588 74.3119 51.9487 74.0759 53.1352C73.8399 54.3217 73.961 55.5515 74.424 56.6691C74.8869 57.7868 75.6709 58.742 76.6767 59.4141C77.6826 60.0862 78.8652 60.4449 80.0749 60.4449C81.6963 60.4424 83.2506 59.7971 84.3971 58.6506C85.5436 57.5041 86.1888 55.9499 86.1914 54.3284ZM111.628 54.3284C111.623 56.305 111.031 58.2355 109.929 59.8762C108.827 61.5168 107.263 62.794 105.435 63.5464C103.607 64.2989 101.597 64.4927 99.6596 64.1036C97.7217 63.7145 95.9426 62.7598 94.547 61.3601C93.1514 59.9604 92.2019 58.1785 91.8184 56.2395C91.4349 54.3005 91.6346 52.2913 92.3923 50.4658C93.15 48.6402 94.4318 47.0802 96.0756 45.9826C97.7195 44.8851 99.6517 44.2993 101.628 44.2993C102.944 44.3006 104.246 44.5611 105.46 45.0659C106.675 45.5707 107.778 46.31 108.707 47.2414C109.636 48.1728 110.372 49.2781 110.873 50.4942C111.374 51.7102 111.631 53.0131 111.628 54.3284ZM107.745 54.3284C107.745 53.1187 107.386 51.9361 106.714 50.9303C106.042 49.9244 105.087 49.1405 103.969 48.6775C102.851 48.2146 101.622 48.0935 100.435 48.3295C99.2485 48.5655 98.1587 49.148 97.3033 50.0034C96.4479 50.8588 95.8653 51.9487 95.6293 53.1352C95.3933 54.3217 95.5144 55.5515 95.9774 56.6691C96.4403 57.7868 97.2243 58.742 98.2301 59.4141C99.236 60.0862 100.419 60.4449 101.628 60.4449C103.25 60.4424 104.804 59.7971 105.95 58.6506C107.097 57.5041 107.742 55.9499 107.745 54.3284Z" fill="#545454"/>
</g>
<defs>
<clipPath id="clip0_791764_8700">
<rect width="87.9612" height="20" fill="white" transform="translate(52.0195 44.2993)"/>
</clipPath>
</defs>
</svg>